<?xml version="1.0" encoding="utf-8"?>
<!-- Generator: Adobe Illustrator 16.0.0, SVG Export Plug-In . SVG Version: 6.00 Build 0)  -->
<!DOCTYPE svg PUBLIC "-//W3C//DTD SVG 1.1//EN" "http://www.w3.org/Graphics/SVG/1.1/DTD/svg11.dtd">
<svg version="1.1" id="Capa_1" xmlns="http://www.w3.org/2000/svg" xmlns:xlink="http://www.w3.org/1999/xlink" x="0px" y="0px"
	 width="1143.708px" height="571.855px" viewBox="0 0 1143.708 571.855" enable-background="new 0 0 1143.708 571.855"
	 xml:space="preserve">
<g id="Capa_x0020_1">
	<path fill="#FFFFFF" d="M13.205,571.772c102.811,0.021,205.627,0.057,308.443,0.082c6.607-38.115,13.217-76.234,19.824-114.352
		c-69.315,0-138.637,0.002-207.955,0.002c6.06-38.094,12.113-76.186,18.171-114.277c69.38,0.01,138.758,0.021,208.137,0.029
		c6.334-38.141,12.67-76.275,19.006-114.416c-69.359-0.02-138.722-0.039-208.082-0.057c6.118-37.969,12.235-75.934,18.354-113.9
		c69.307-0.021,138.609-0.041,207.916-0.063c6.424-38.041,12.844-76.08,19.266-114.123C312.978,0.557,209.678,0.418,106.375,0.28
		C93.186-0.337,90.921,0.649,89.086,13.418c-5.409,40.254-15.282,90.344-21.819,133.451C64.24,166.844,12.275,474.577,0.536,553.557
		C-1.247,565.176,1.043,571.977,13.205,571.772L13.205,571.772z"/>
	<polygon fill="#FFFFFF" points="406.528,343.215 505.813,343.254 560.229,0.284 461.878,0 	"/>
	<path fill="#FFFFFF" d="M1130.502,0.083C1027.692,0.063,924.875,0.028,822.061,0c-6.607,38.117-13.217,76.234-19.824,114.354
		c69.314,0,138.637-0.002,207.953-0.002c-6.059,38.094-12.111,76.186-18.17,114.275c-69.381-0.01-138.758-0.02-208.137-0.029
		c-6.336,38.141-12.67,76.275-19.006,114.416c69.359,0.02,138.723,0.037,208.082,0.059c-6.119,37.967-12.236,75.932-18.354,113.898
		c-69.309,0.021-138.611,0.039-207.918,0.063c-6.422,38.041-12.844,76.082-19.266,114.123c103.307,0.141,206.605,0.279,309.91,0.42
		c13.188,0.615,15.453-0.369,17.287-13.141c5.41-40.256,15.283-90.346,21.818-133.451c3.029-19.977,54.992-327.707,66.732-406.688
		C1144.954,6.678,1142.665-0.121,1130.502,0.083L1130.502,0.083z"/>
	<polygon fill="#FFFFFF" points="737.178,228.825 637.895,228.784 583.477,571.573 681.829,571.854 	"/>
</g>
</svg>
